<svg width="30" height="30" xmlns="http://www.w3.org/2000/svg">
 <g>
  <title>Layer 1</title>
  <path id="svg_8" d="m45,152.5l147,0l0,113l-147,0l0,-113z" opacity="undefined" stroke="#000" fill="#7AD6CA"/>
  <rect fill="#7AD6CA" x="234" y="34.5" width="147" height="113" id="svg_9" stroke="#000"/>
  <rect fill="#7AD6CA" x="436" y="32.5" width="147" height="113" id="svg_10" stroke="#000"/>
  <path fill="#7AD6CA" stroke="#000" d="m149.25498,310.83834l79.06754,0l24.43248,-74.48357l24.43249,74.48357l79.06752,0l-63.96686,46.03285l24.43374,74.48357l-63.96689,-46.0341l-63.96688,46.0341l24.43375,-74.48357l-63.96688,-46.03285l-0.00001,0z" id="svg_11"/>
  <path fill="#7AD6CA" stroke="#000" d="m206.96503,443.78098l104.65943,0l32.34057,-83.65078l32.34059,83.65078l104.65941,0l-84.6711,51.69843l32.34224,83.65078l-84.67114,-51.69984l-84.67112,51.69984l32.34225,-83.65078l-84.67113,-51.69843z" id="svg_12"/>
  <path fill="#7AD6CA" stroke="#000" opacity="undefined" d="m349.24998,314.34308l101.60368,0l31.39632,-94.72782l31.39634,94.72782l101.60366,0l-82.19895,58.54435l31.39794,94.72782l-82.19899,-58.54594l-82.19897,58.54594l31.39795,-94.72782l-41.09949,-29.27218l-41.09949,-29.27217z" id="svg_13"/>
  <line id="svg_1" y2="24.71875" x2="5.0625" y1="4.09375" x1="4.9375" stroke="#000" fill="none"/>
  <line id="svg_2" y2="6.90625" x2="12.5" y1="14.09375" x1="6.0625" stroke="#000" fill="none"/>
  <line id="svg_3" y2="22.28125" x2="13.5625" y1="15.03125" x1="6" stroke="#000" fill="none"/>
  <ellipse ry="5.875" rx="5.65625" id="svg_4" cy="17.40625" cx="20.28125" stroke="#000" fill="#7AD6CA"/>
  <ellipse ry="1.1875" rx="1.1875" id="svg_5" cy="17.28125" cx="20.375" stroke="#000" fill="#7AD6CA"/>
  <ellipse ry="1.09375" rx="1.0625" id="svg_6" cy="14.8125" cx="5.75" stroke="#000" fill="#7AD6CA"/>
  <line id="svg_7" y2="7.34375" x2="20.875" y1="2.15625" x1="15.5625" stroke="#000" fill="none"/>
  <line id="svg_14" y2="7.46875" x2="15.8125" y1="2.15625" x1="20.625" stroke="#000" fill="none"/>
 </g>

</svg>